<?xml version="1.0" standalone="no"?><!DOCTYPE svg PUBLIC "-//W3C//DTD SVG 1.1//EN" "http://www.w3.org/Graphics/SVG/1.1/DTD/svg11.dtd"><svg t="1608883134715" class="icon" viewBox="0 0 1024 1024" version="1.1" xmlns="http://www.w3.org/2000/svg" p-id="9433" xmlns:xlink="http://www.w3.org/1999/xlink" width="200" height="200"><defs><style type="text/css"></style></defs><path d="M512 298.6496c117.76 0 213.3504 95.5904 213.3504 213.3504 0 27.7504-5.5808 53.76-15.36 78.08l124.5696 124.5696A504.2176 504.2176 0 0 0 980.8896 512c-73.7792-187.2896-256-320-469.2992-320a496.8448 496.8448 0 0 0-169.8304 29.8496l92.16 92.16c24.32-9.7792 50.3296-15.36 78.08-15.36zM85.3504 182.1696l97.28 97.28 19.6096 19.6608A503.6544 503.6544 0 0 0 42.6496 512c73.8304 187.2896 256 320 469.3504 320 66.1504 0 129.28-12.8 186.88-35.84l17.92 17.92 125.0304 124.5696 54.1696-54.1696L139.52 128 85.3504 182.1696z m235.9296 235.9808l66.1504 66.0992A120.3712 120.3712 0 0 0 384 512c0 70.8096 57.1904 128 128 128 9.3696 0 18.7904-1.28 27.7504-3.4304l66.0992 66.1504a211.456 211.456 0 0 1-93.8496 22.6304A213.4016 213.4016 0 0 1 298.6496 512c0-33.6896 8.5504-65.28 22.6304-93.8496z m183.9104-33.28l134.4 134.4 0.8192-6.8608c0-70.8096-57.1392-128-128-128l-7.2192 0.4608z" p-id="9434"></path></svg>