<?xml version="1.0" standalone="no"?><!DOCTYPE svg PUBLIC "-//W3C//DTD SVG 1.1//EN" "http://www.w3.org/Graphics/SVG/1.1/DTD/svg11.dtd"><svg t="1608882937410" class="icon" viewBox="0 0 1024 1024" version="1.1" xmlns="http://www.w3.org/2000/svg" p-id="3153" xmlns:xlink="http://www.w3.org/1999/xlink" width="200" height="200"><defs><style type="text/css"></style></defs><path d="M512 80c-237.6 0-432 194.4-432 432s194.4 432 432 432 432-194.4 432-432-192.8-432-432-432z m0 42.4c215.2 0 389.6 175.2 389.6 389.6 0 90.4-30.4 172-81.6 239.2-7.2-6.4-16-12-25.6-16-59.2-29.6-36-7.2-109.6-36.8-73.6-30.4-90.4-40-90.4-40l-0.8-68.8S620.8 568 629.6 504c16.8 5.6 23.2-20 23.2-36 0.8-16 10.4-64-10.4-59.2 4-32 7.2-61.6 6.4-76.8-4.8-56-42.4-112-136.8-116-80 4-132 60.8-136.8 114.4-0.8 15.2 0.8 44.8 6.4 76.8-21.6-4-12 43.2-10.4 59.2 0.8 16 6.4 41.6 23.2 36 8.8 65.6 36 87.2 36 87.2l-0.8 70.4s-16.8 10.4-90.4 40c-73.6 30.4-49.6 6.4-109.6 36-9.6 4-18.4 10.4-25.6 16-51.2-67.2-81.6-149.6-81.6-240 0-214.4 175.2-389.6 389.6-389.6z" p-id="3154"></path></svg>